<?xml version="1.0" encoding="UTF-8" ?>
<!DOCTYPE svg PUBLIC "-//W3C//DTD SVG 1.1//EN" "http://www.w3.org/Graphics/SVG/1.1/DTD/svg11.dtd">
<svg width="458pt" height="458pt" viewBox="0 0 458 458" version="1.1" xmlns="http://www.w3.org/2000/svg">
<g id="#3a80baff">
<path fill="#3a80ba" opacity="1.00" d=" M 236.86 0.00 L 244.31 0.00 C 248.58 0.59 252.81 1.55 256.86 3.09 C 268.99 6.99 278.73 16.81 283.77 28.38 C 288.61 39.70 288.71 52.88 284.32 64.36 C 279.89 75.86 270.55 85.08 259.43 90.21 C 259.02 90.34 258.21 90.58 257.80 90.71 C 251.26 93.42 244.09 94.81 237.01 94.33 C 222.51 92.74 208.45 84.91 200.59 72.43 C 195.65 64.94 193.54 55.95 193.00 47.09 C 193.49 37.18 196.20 27.16 202.24 19.14 C 210.10 7.85 223.40 1.44 236.86 0.00 Z" />
<path fill="#3a80ba" opacity="1.00" d=" M 106.04 46.59 C 115.69 45.42 125.62 46.50 134.63 50.25 C 140.71 52.75 145.85 56.94 150.92 61.04 C 157.60 67.53 162.10 75.89 165.22 84.59 C 165.31 85.01 165.50 85.85 165.59 86.27 C 166.17 88.57 166.39 90.95 166.60 93.31 C 167.69 97.34 167.70 101.66 166.59 105.68 C 166.44 110.92 164.84 115.95 162.72 120.69 C 159.39 129.81 152.63 137.08 145.42 143.33 C 142.31 145.50 138.85 147.10 135.50 148.84 C 130.66 151.24 125.37 152.99 119.96 153.41 C 111.69 153.25 102.97 154.49 95.26 150.72 C 78.77 145.39 66.01 131.14 61.31 114.63 C 58.48 107.08 59.84 98.87 59.69 91.00 C 61.48 80.46 66.43 70.48 73.66 62.59 C 79.75 56.78 86.85 52.10 94.61 48.83 C 98.52 48.47 102.02 46.18 106.04 46.59 Z" />
<path fill="#3a80ba" opacity="1.00" d=" M 357.44 60.40 C 360.69 59.29 364.17 59.75 367.53 59.34 C 373.31 59.37 379.06 60.29 384.40 62.62 C 395.71 67.93 404.14 78.66 407.23 90.71 C 408.59 100.45 408.01 110.90 402.83 119.53 C 397.58 129.30 387.75 136.02 377.25 139.09 C 370.03 139.70 362.48 140.45 355.47 138.23 C 347.14 135.66 340.13 129.99 334.62 123.38 C 332.06 119.75 330.38 115.59 328.80 111.46 C 325.99 100.47 326.93 88.17 333.24 78.51 C 338.69 69.82 347.31 62.66 357.44 60.40 Z" />
<path fill="#3a80ba" opacity="1.00" d=" M 31.12 174.25 C 39.00 169.78 48.09 168.14 56.94 166.76 C 66.54 166.14 76.09 168.72 85.06 171.91 C 97.35 177.60 107.91 187.39 113.85 199.63 C 114.14 200.02 114.72 200.81 115.01 201.21 C 116.12 204.36 117.38 207.46 118.34 210.66 C 122.24 224.55 120.76 239.61 115.01 252.78 C 114.72 253.18 114.14 253.98 113.85 254.37 C 108.48 265.54 99.19 274.51 88.41 280.46 C 81.06 284.19 72.92 285.87 64.84 287.15 C 61.02 287.58 57.12 287.47 53.35 286.68 C 44.61 285.15 35.64 283.11 28.24 277.95 C 17.86 271.68 9.87 261.81 5.08 250.74 C 1.92 243.94 0.97 236.47 0.00 229.11 L 0.00 224.72 C 0.94 218.74 1.45 212.63 3.63 206.93 C 6.45 198.24 11.87 190.70 17.96 184.01 C 21.75 180.03 26.51 177.18 31.12 174.25 Z" />
<path fill="#3a80ba" opacity="1.00" d=" M 393.98 199.94 C 401.05 192.72 411.20 189.45 421.08 188.96 C 427.13 189.54 433.19 191.12 438.57 194.01 C 444.47 197.10 449.49 201.78 452.96 207.47 C 455.43 211.64 456.82 216.31 458.00 220.98 L 458.00 233.26 C 457.06 236.48 456.19 239.76 454.70 242.78 C 454.56 243.23 454.30 244.13 454.17 244.58 C 451.89 247.82 449.86 251.28 447.00 254.06 C 436.28 264.63 418.89 268.65 405.19 261.64 C 404.77 261.55 403.92 261.36 403.50 261.27 C 396.38 257.30 390.20 251.33 386.52 243.99 C 378.92 229.80 382.22 210.88 393.98 199.94 Z" />
<path fill="#3a80ba" opacity="1.00" d=" M 349.38 330.15 C 355.54 325.70 363.28 322.77 370.97 323.82 C 375.15 324.44 379.03 326.21 382.83 328.00 C 390.38 332.77 396.47 340.31 397.67 349.37 C 399.60 354.95 396.75 360.37 396.12 365.88 C 395.80 366.21 395.14 366.87 394.81 367.20 C 392.38 374.36 385.88 378.90 379.48 382.27 C 373.87 384.62 367.66 385.22 361.67 384.24 C 358.80 383.27 355.93 382.30 353.19 381.01 C 347.48 377.50 342.47 372.70 339.75 366.49 C 336.93 361.04 337.55 354.86 337.64 348.94 C 337.59 346.86 338.68 345.03 339.49 343.20 C 339.54 342.79 339.62 341.96 339.67 341.55 C 342.38 337.36 345.18 333.02 349.38 330.15 Z" />
<path fill="#3a80ba" opacity="1.00" d=" M 95.93 343.16 C 102.82 332.08 120.43 331.46 128.77 341.14 C 130.86 344.04 132.20 347.35 133.34 350.71 C 134.00 357.11 132.30 364.07 127.50 368.59 C 123.95 372.83 118.21 374.09 112.99 374.88 C 109.57 374.42 106.23 373.42 103.03 372.16 C 93.11 366.69 89.78 352.61 95.93 343.16 Z" />
<path fill="#3a80ba" opacity="1.00" d=" M 216.49 411.38 C 213.43 397.59 224.99 383.26 238.93 382.59 C 247.60 382.26 256.62 386.60 261.02 394.22 C 264.49 399.33 264.99 405.86 264.13 411.83 C 262.46 421.62 253.96 429.62 244.17 431.00 L 235.61 431.00 C 226.15 428.83 218.12 421.07 216.49 411.38 Z" />
</g>
</svg>
