<?xml version="1.0" encoding="UTF-8"?>
<svg fill="none" viewBox="0 0 106 96" xmlns="http://www.w3.org/2000/svg">
<path d="m56.056 3.2798c9.8784-1.2445 23.634-5.8049 32.833-1.4062 9.5598 4.5711 10.361 12.344 13.857 23.731 3.582 11.668 4.266 24.186 1.758 36.233-2.661 12.787-10.259 11.09-19.284 18.922-9.0637 7.8657-22.507 16.679-37.833 15.043-26.933-2.8746-57.056-41.044-44.414-70.197 4.9513-11.418 14.331-18.936 28.109-22.325 13.348-1.1651 16.659 1.0476 24.974 0z" clip-rule="evenodd" fill="url(#a)" fill-rule="evenodd"/>
<path d="m78.799 42.356h-6.3947v-16.756c-0.0032-2.5693-2.076-4.6514-4.6339-4.6544h-27.803c-2.5579 3e-3 -4.6308 2.0851-4.6339 4.6545v5.5855h-5.0843c-2.3094 0.0025-4.181 1.8824-4.1834 4.2021v25.108c0.0024 2.3198 1.874 4.1996 4.1834 4.2021h14.802c1.7638-0.0053 3.3342-1.123 3.9239-2.7927h16.015c0.5119 0 0.9268-0.4167 0.9268-0.9309v-1.8618c0-1.5424-1.2449-2.7928-2.7803-2.7928h-2.7804v-3.7236h7.4143v9.216c0 1.5939 1.2863 2.8858 2.8729 2.8858h8.1556c1.5868 0 2.873-1.2921 2.873-2.8858v-16.57c1e-4 -1.5938-1.2862-2.8859-2.8729-2.8859zm-31.418 18.14c-9e-4 1.2921-1.0436 2.3393-2.3299 2.3404h-14.802c-1.2864-1e-3 -2.3289-1.0483-2.33-2.3404v-0.4524h19.462v0.4524h1e-4zm0-2.3142h-19.462v-20.48h19.462v20.48zm0-22.342h-19.462v-0.4524c1e-3 -1.2921 1.0436-2.3393 2.33-2.3404h14.802c1.2863 1e-3 2.3289 1.0483 2.3299 2.3404v0.4524zm15.755 22.342c0.5118 0 0.9267 0.4168 0.9267 0.9309v0.9308h-14.828v-1.8617h13.902zm-13.902-1.8619v-3.7236h9.2677v3.7236h-9.2677zm18.536-5.5854h-18.536v-2.7927h18.536v2.7927zm0-5.4923v0.8378h-18.536v-10.692c-0.0026-2.3197-1.8741-4.1996-4.1834-4.2021h-7.8646v-5.5855c0-1.5423 1.2447-2.7927 2.7803-2.7927h27.803c1.5355 0 2.7803 1.2503 2.7803 2.7927v16.766c-1.5468 0.0501-2.7761 1.3219-2.7803 2.8765zm12.048 16.57c0 0.5656-0.4565 1.0241-1.0195 1.0241h-8.1556c-0.563 0-1.0194-0.4585-1.0194-1.0241v-0.8378h10.194v0.8378zm0-2.6996h-10.194v-11.171h10.194v11.171zm0-13.033h-10.194v-0.8378c0-0.5655 0.4564-1.024 1.0194-1.024h8.1556c0.563 0 1.0195 0.4585 1.0195 1.024v0.8378z" fill="#fff"/>
<defs>
<linearGradient id="a" x1="2.2819" x2="104.08" y1="10.082" y2="11.95" gradientUnits="userSpaceOnUse">
<stop stop-color="#255D8B" offset="0"/>
<stop stop-color="#3A80BA" offset="1"/>
</linearGradient>
</defs>
</svg>
