<?xml version="1.0" encoding="UTF-8"?>
<svg fill="none" viewBox="0 0 106 96" xmlns="http://www.w3.org/2000/svg">
<path d="m56.056 3.2798c9.8784-1.2445 23.634-5.8049 32.833-1.4062 9.5598 4.5711 10.361 12.344 13.857 23.731 3.582 11.668 4.266 24.186 1.758 36.233-2.661 12.787-10.259 11.09-19.284 18.922-9.0637 7.8657-22.507 16.679-37.833 15.043-26.933-2.8746-57.056-41.044-44.414-70.197 4.9513-11.418 14.331-18.936 28.109-22.325 13.348-1.1651 16.659 1.0476 24.974 0z" clip-rule="evenodd" fill="url(#a)" fill-rule="evenodd"/>
<path d="m74.084 56.669c0.2947-1.5694 0.2871-3.181-0.0222-4.7476l4.2492-10.289c4e-4 -0.0068 4e-4 -0.0137 0-0.0205 0.6886-1.8916 1.6977-3.6495 2.9828-5.1963 0.3198-0.3389 0.4484-0.8164 0.3424-1.2707l-1.7424-7.5497c-0.0207-0.0789-0.052-0.1547-0.0928-0.2253-0.0074-0.014-0.0102-0.0307-0.0176-0.0437-0.0074-0.0131-0.0399-0.0447-0.0585-0.0689-0.0379-0.0558-0.0818-0.1073-0.1308-0.1536-0.0323-0.0228-0.066-0.0433-0.1011-0.0615-0.0453-0.0334-0.0934-0.0627-0.1438-0.0875-0.07-0.0265-0.1429-0.0443-0.2171-0.053-0.0214 0-0.0399-0.014-0.0613-0.0159-0.1778-0.0119-0.3553 0.0279-0.5112 0.1145-0.0139 0.0075-0.0306 0.0103-0.0445 0.0187h-0.0093l-6.551 4.1025c-0.3967 0.2465-0.643 0.6769-0.655 1.145-0.182 2.01-0.7097 3.9731-1.5596 5.8024v0.0102l-2.1237 5.1507c-1.0423-0.556-2.1582-0.9603-3.314-1.2009 0.4375-3.0301 0.5984-6.0941 0.4806-9.1536 1.727-2.0791 2.5559-4.7638 2.3027-7.4584-0.5799-5.4254-5.4665-9.3436-5.6752-9.5083-0.3138-0.2479-0.7504-0.2666-1.084-0.0463-0.3336 0.2202-0.4893 0.63-0.3866 1.0172 0.4779 1.8004 0.0641 3.7004-3.4652 7.6074-1.5857 1.5363-2.0883 3.882-1.272 5.9364 0.3121 0.7858 0.7593 1.5105 1.3212 2.1411-0.2246 1.4382-0.4008 2.8002-0.5224 4.1267-0.2092 2.1941-0.2632 4.4003-0.1614 6.602-0.8277 0.4503-1.6026 0.992-2.3102 1.6151l-4.4997-19.307c0-0.0196-0.0186-0.0335-0.0241-0.0512-0.0151-0.0621-0.0369-0.1223-0.065-0.1797l-4.5962-8.5169c-0.46-0.8524-1.4317-1.2905-2.3724-1.0694-0.9406 0.221-1.6174 1.0465-1.6523 2.0152l-0.3488 9.6768c2e-4 0.0699 8e-3 0.1395 0.0232 0.2076v0.0419l4.5906 19.658c-0.7242 0.0321-1.443 0.1397-2.145 0.3212l-5.0499-12.237c-0.4049-0.9354-1.4789-1.3768-2.4215-0.9952l-7.7182 3.2061c-0.9446 0.3956-1.3935 1.4824-1.0048 2.4325l6.8489 16.578c-4.0141 0.2115-7.1298 3.5924-7.0262 7.6242s3.3889 7.2472 7.4084 7.2508h40.822c2.6517-0.0386 5.0815-1.4937 6.374-3.8172 1.2926-2.3234 1.2515-5.1623-0.1076-7.4472-1.3592-2.2849-3.83-3.6687-6.4817-3.6302zm-0.9454-24.096 3.8893-2.4353-1.3768 3.3364c-0.1963 0.4751 0.0284 1.0198 0.5019 1.2167 0.4734 0.1969 1.0163-0.0286 1.2126-0.5036l1.3768-3.3364 1.0308 4.4805c-1.1029 1.3499-2.0088 2.8504-2.6906 4.4562-0.9673 0.4499-2.078 0.4733-3.0632 0.0644-0.9853-0.4088-1.7551-1.2126-2.1231-2.2166 0.6516-1.6197 1.0699-3.3242 1.2423-5.0623zm-2.1339 7.3086c0.6138 0.7529 1.4103 1.3347 2.313 1.6896 0.7175 0.3096 1.4892 0.4729 2.2703 0.4803 0.1879-7e-4 0.3756-0.0122 0.5622-0.0344l-2.9605 7.168c-0.8865-1.9612-2.2579-3.6624-3.9839-4.9422l1.7989-4.3613zm-12.71-6.6486 4.6611 0.2858c0.0288 0.8695 0.0186 1.7687-0.0102 2.6819-1.5528 0.1114-3.1133 0.0357-4.6481-0.2252-0.1169-0.0168-0.2311-0.0298-0.347-0.0456 0.0927-0.877 0.2059-1.7651 0.3423-2.6969h0.0019zm-0.4426-7.4966c2.4633-2.7266 3.7399-4.824 4.0368-6.7956 1.7706 1.8278 2.9393 4.157 3.3483 6.6727 0.1949 2.1901-0.48 4.3687-1.8778 6.0621-1.8327-0.1117-3.6452-0.2234-5.4377-0.3351-0.7702-0.7225-1.2133-1.729-1.2267-2.7868-0.0135-1.0578 0.4037-2.0753 1.1553-2.8173h0.0018zm-0.0705 12.049 0.2691 0.0353c1.1955 0.1855 2.4023 0.2885 3.6118 0.3082 0.3841 0 0.7886-0.0308 1.1941-0.0624-0.0845 1.1981-0.2227 2.4492-0.3981 3.7422-0.2291-0.0121-0.4536-0.0344-0.6837-0.0344-1.4008 0.0025-2.791 0.2427-4.1119 0.7103-0.0428-1.5674-0.0038-3.136 0.1169-4.6992h0.0018zm-7.1764 10.886-2.6543-11.345c-0.1241-0.4922-0.6184-0.7938-1.111-0.6781-0.4927 0.1158-0.8021 0.6063-0.6954 1.1026l2.3853 10.211c-0.6558-0.2354-1.3333-0.4047-2.0226-0.5055l-4.072-17.436c0.5705 0.2606 1.1898 0.3959 1.8166 0.3966 0.0585 0 0.1206-0.0084 0.18-0.0112l0.6559 2.8105c0.0707 0.3289 0.3128 0.594 0.6333 0.6932 0.3205 0.0993 0.6694 0.0173 0.9126-0.2144s0.3428-0.5771 0.2605-0.9033l-0.6568-2.8123c0.6294-0.2796 1.1846-0.7037 1.6208-1.2381l4.1397 17.761c-0.5376 0.6728-1.0042 1.3997-1.3926 2.169zm-5.6687-20.201c-1.1865 0.2309-2.398-0.2559-3.0978-1.2446l0.1178-3.2787c0.3228 0.0605 0.6504 0.0916 0.9788 0.0931 0.3172 0.0013 0.6335-0.034 0.9426-0.1052 0.6259-0.1649 1.2114-0.4571 1.7201-0.8583l1.5624 2.8933c-0.1862 1.2004-1.0565 2.1797-2.2239 2.5022v-0.0018zm-2.5412-10.875c0.1264-0.0294 0.2568 0.0292 0.3192 0.1434l1.9891 3.691c-0.3588 0.3257-0.7873 0.5646-1.2525 0.6982-0.4754 0.0876-0.9646 0.0643-1.4297-0.068l0.1513-4.1946c5e-3 -0.1301 0.0962-0.2407 0.2226-0.27zm-6.7143 18.593 0.7088 1.7185-3.4328 1.4262c-0.4069 0.1714-0.6371 0.6068-0.5504 1.0411 0.0866 0.4342 0.4662 0.7471 0.9076 0.7481 0.1219-3e-4 0.2426-0.0243 0.3554-0.0708l3.4328-1.4271 0.7097 1.7204-1.7173 0.714c-0.4093 0.1699-0.6418 0.6065-0.5551 1.0423 0.0867 0.4359 0.4684 0.7494 0.9114 0.7487 0.1215-4e-4 0.2419-0.0244 0.3544-0.0707l1.7173-0.714 0.7097 1.7203-3.4355 1.4289c-0.4093 0.17-0.6418 0.6065-0.5551 1.0424s0.4684 0.7494 0.9113 0.7487c0.1216-3e-4 0.242-0.0244 0.3544-0.0707l3.4328-1.4262 0.7506 1.8181c-3.0233 1.3846-5.2402 4.092-6.0074 7.3365l-6.7245-16.269 7.7219-3.2061zm38.619 33.513h-40.822c-3.0744 0-5.5667-2.5007-5.5667-5.5855 0-3.0847 2.4923-5.5854 5.5667-5.5854 0.5376-0.0018 1.0725 0.076 1.5874 0.2308 0.2782 0.0843 0.5797 0.033 0.8146-0.1387s0.376-0.4439 0.3814-0.7354c0.066-3.3177 1.9774-6.3191 4.9502-7.7731 2.9729-1.4539 6.5067-1.1157 9.152 0.876 0.2337 0.1746 0.5357 0.2288 0.8153 0.1465 0.2796-0.0824 0.5044-0.2918 0.607-0.5654 1.8126-4.8471 6.8223-7.6982 11.899-6.7718 5.0764 0.9264 8.7647 5.3649 8.7602 10.542 0.0018 1.0646-0.1561 2.1234-0.4685 3.1409-0.0975 0.3165-0.02 0.6612 0.2036 0.9051 0.2235 0.2438 0.5594 0.3501 0.8819 0.279 0.4068-0.0899 0.8221-0.1354 1.2386-0.1359 3.0744 0 5.5667 2.5007 5.5667 5.5854 0 3.0848-2.4923 5.5855-5.5667 5.5855z" fill="#fff"/>
<path d="m61.946 30.325c0.2912 0.0011 0.5661-0.135 0.7423-0.3677 1.1582-1.573 1.6059-3.5614 1.2339-5.4812-0.0791-0.3282-0.3292-0.5878-0.6536-0.6781-0.3243-0.0904-0.672 0.0026-0.9084 0.243-0.2365 0.2403-0.3247 0.5903-0.2305 0.9145 0.2222 1.3642-0.1093 2.7609-0.9203 3.8782-0.2109 0.2821-0.2448 0.6595-0.0876 0.9749 0.1571 0.3153 0.4784 0.5146 0.8298 0.5146l-0.0056 0.0018z" fill="#fff"/>
<path d="m60.725 58.531c-0.69 0.0021-1.3704 0.1612-1.9901 0.4654-1.669-2.2915-4.7854-2.9628-7.2447-1.5605-2.4593 1.4022-3.4795 4.4321-2.3718 7.0436 0.1458 0.3432 0.4817 0.566 0.8536 0.566 0.125 3e-4 0.2488-0.0251 0.3637-0.0745 0.2264-0.0968 0.4052-0.2798 0.497-0.5089 0.0919-0.229 0.0893-0.4853-0.0071-0.7125-0.202-0.4723-0.3062-0.981-0.3062-1.495 0-2.0565 1.6615-3.7236 3.7111-3.7236 1.4395-0.0072 2.7505 0.8297 3.3539 2.141 0.0201 0.0304 0.0418 0.0596 0.065 0.0876 0.0146 0.0319 0.031 0.063 0.0491 0.093 0.0167 0.0205 0.0409 0.0298 0.0594 0.0494 0.0435 0.0453 0.0917 0.0859 0.1438 0.121 0.0464 0.0358 0.0961 0.067 0.1485 0.0931 0.0539 0.0227 0.1098 0.0401 0.167 0.0521 0.057 0.0151 0.1155 0.0241 0.1744 0.027 0.1205-1e-3 0.2401-0.0211 0.3544-0.0596 0.0247-0.0045 0.0492-0.0104 0.0733-0.0176 0.0301-0.0196 0.0589-0.041 0.0863-0.0643 0.0334-0.0149 0.0659-0.0317 0.0974-0.0502 0.4873-0.3955 1.0952-0.6111 1.722-0.6107 1.0848 0.0017 2.0697 0.6358 2.5235 1.6244 0.2127 0.4679 0.763 0.6742 1.2293 0.4608 0.4663-0.2133 0.6719-0.7656 0.4593-1.2334-0.7555-1.6523-2.4005-2.712-4.2121-2.7136z" fill="#fff"/>
<path d="m42.461 52.062c-0.14 0.0456-3.4179 1.1832-3.4179 4.6071 0 0.5141 0.4154 0.9309 0.9278 0.9309s0.9278-0.4168 0.9278-0.9309c0.0757-1.2986 0.9273-2.4221 2.1543-2.8421 0.4868-0.164 0.7489-0.6929 0.5854-1.1813s-0.6906-0.7514-1.1774-0.5874v0.0037z" fill="#fff"/>
<path d="m55.518 51.056c0.0737 0.0188 0.1495 0.0282 0.2255 0.028 0.4252-5e-4 0.7957-0.2909 0.899-0.7047 0.427-1.7384 1.9607-2.9749 3.7445-3.019 0.5124-0.0013 0.9267-0.4191 0.9255-0.9332-0.0013-0.5141-0.4177-0.9299-0.9301-0.9286-2.6371 0.0351-4.9159 1.8571-5.5389 4.4283-0.1245 0.4987 0.1775 1.0043 0.6745 1.1292z" fill="#fff"/>
<defs>
<linearGradient id="a" x1="2.2819" x2="104.08" y1="10.082" y2="11.95" gradientUnits="userSpaceOnUse">
<stop stop-color="#255D8B" offset="0"/>
<stop stop-color="#3A80BA" offset="1"/>
</linearGradient>
</defs>
</svg>
