<?xml version="1.0" encoding="UTF-8"?>
<svg fill="none" viewBox="0 0 106 96" xmlns="http://www.w3.org/2000/svg">
<path d="m56.056 3.2798c9.8784-1.2445 23.634-5.8049 32.833-1.4062 9.5598 4.5711 10.361 12.344 13.857 23.731 3.582 11.668 4.266 24.186 1.758 36.233-2.661 12.787-10.259 11.09-19.284 18.922-9.0637 7.8657-22.507 16.679-37.833 15.043-26.933-2.8746-57.056-41.044-44.414-70.197 4.9513-11.418 14.331-18.936 28.109-22.325 13.348-1.1651 16.659 1.0476 24.974 0z" clip-rule="evenodd" fill="url(#a)" fill-rule="evenodd"/>
<path d="m84.592 22.22-14.828-6.4344c-0.2342-0.1014-0.4998-0.1014-0.734 0l-8.7821 3.8093c-4.6543-4.0707-11.248-5.0331-16.863-2.4616s-9.2161 8.2024-9.209 14.401v4.6545c-2.558 0.0031-4.6308 2.0852-4.6339 4.6545v26.065c0.0031 2.5693 2.0759 4.6514 4.6339 4.6544h31.51c2.5579-3e-3 4.6308-2.0851 4.6339-4.6544v-12.381c0.0296-0.0186 0.0639-0.0261 0.0926-0.0465l10.247-7.3281c2.8054-2.0004 4.4769-5.238 4.4884-8.6936v-15.385c5e-4 -0.3707-0.2179-0.7063-0.5561-0.8546zm-48.563 9.3146c-0.0016-5.3055 2.9912-10.153 7.7233-12.51 4.7321-2.357 10.385-1.8156 14.589 1.397l-4.1473 1.7985c-0.0112 6e-3 -0.022 0.0125-0.0325 0.0196-3.1519-1.4528-6.8232-1.1939-9.7421 0.6869s-4.6837 5.1248-4.6831 8.6081v4.6545h-3.7072v-4.6545zm17.609 4.6545h-12.048l1e-4 -4.6545c-0.0109-2.9028 1.4805-5.6028 3.9383-7.1298s5.5289-1.6616 8.1098-0.3556v12.14zm12.048 33.512h-31.51c-1.5355 0-2.7803-1.2504-2.7803-2.7927v-0.9309h5.5606c0.5119 0 0.9268-0.4168 0.9268-0.9309 0-0.5142-0.4149-0.9309-0.9268-0.9309h-5.5606v-1.8618h5.5606c0.5119 0 0.9268-0.4168 0.9268-0.9309 0-0.5142-0.4149-0.9309-0.9268-0.9309h-5.5606v-1.8618h5.5606c0.5119 0 0.9268-0.4168 0.9268-0.9309 0-0.5142-0.4149-0.9309-0.9268-0.9309h-5.5606v-1.8618h5.5606c0.5119 0 0.9268-0.4168 0.9268-0.9309 0-0.5142-0.4149-0.9309-0.9268-0.9309h-5.5606v-1.8618h5.5606c0.5119 0 0.9268-0.4168 0.9268-0.9309s-0.4149-0.9309-0.9268-0.9309h-5.5606v-1.8618h5.5606c0.5119 0 0.9268-0.4168 0.9268-0.9309s-0.4149-0.9309-0.9268-0.9309h-5.5606v-1.8618h5.5606c0.5119 0 0.9268-0.4168 0.9268-0.9309s-0.4149-0.9309-0.9268-0.9309h-5.5606v-0.9309c0-1.5424 1.2448-2.7927 2.7803-2.7927h19.462v0.4087c0.0107 3.4549 1.6816 6.692 4.4865 8.6918l8.1028 5.7939h-3.3216c-0.5118 0-0.9267 0.4167-0.9267 0.9309 0 0.5141 0.4149 0.9309 0.9267 0.9309h5.5607v1.8618h-5.5607c-0.5118 0-0.9267 0.4167-0.9267 0.9309 0 0.5141 0.4149 0.9309 0.9267 0.9309h5.5607v1.8618h-5.5607c-0.5118 0-0.9267 0.4167-0.9267 0.9309 0 0.5141 0.4149 0.9309 0.9267 0.9309h5.5607v1.8618h-5.5607c-0.5118 0-0.9267 0.4167-0.9267 0.9309 0 0.5141 0.4149 0.9309 0.9267 0.9309h5.5607v0.9309c0 1.5423-1.2448 2.7927-2.7803 2.7927zm17.609-31.242c-0.0101 2.8526-1.3907 5.5248-3.7071 7.1753l-10.194 7.289-10.195-7.289c-2.3163-1.6505-3.6969-4.3227-3.7071-7.1753v-14.773l4.9583-2.1513 0.0259-0.0112 8.9175-3.8697 13.902 6.0322v14.773z" fill="#fff"/>
<path d="m69.022 19.842-11.121 4.8258c-0.3382 0.1483-0.5566 0.4839-0.5561 0.8546v12.94c0.0105 2.2505 1.1014 4.3578 2.9296 5.6589l8.581 6.1346c0.3217 0.2301 0.7533 0.2301 1.0751 0l8.581-6.1346c1.8292-1.3011 2.9203-3.4094 2.9295-5.6608v-12.94c6e-4 -0.3706-0.2178-0.7063-0.556-0.8546l-11.121-4.8257c-0.2366-0.1031-0.5053-0.1024-0.7414 0.0018zm10.565 6.2938v12.324c-9e-3 1.6487-0.8102 3.1916-2.1511 4.1425l-8.0435 5.7502-8.0435-5.7502c-1.3402-0.9515-2.1411-2.494-2.151-4.1425v-12.324l10.194-4.4245 10.195 4.4245z" fill="#fff"/>
<path d="m63.593 36.11c-0.2649-0.1996-0.6156-0.242-0.9201-0.1114s-0.5165 0.4145-0.5561 0.7447 0.0992 0.6565 0.3641 0.8561l4.2363 3.1911c0.4004 0.3018 0.967 0.2297 1.2798-0.1629l8.4735-10.638c0.3197-0.4018 0.2546-0.9878-0.1455-1.3089-0.4-0.321-0.9834-0.2556-1.303 0.1462l-7.911 9.9336-3.518-2.6502z" fill="#fff"/>
<path d="m55.491 50.153c0.0011-2.6366-1.8335-4.9148-4.4007-5.4649-2.5671-0.55-5.1675 0.7781-6.2376 3.1856-1.07 2.4076-0.3182 5.2389 1.8033 6.7914l-1.3438 7.423c-0.0491 0.2714 0.0241 0.5508 0.2 0.7627s0.4364 0.3345 0.711 0.3348h7.4142c0.2747-3e-4 0.5352-0.1229 0.7111-0.3348s0.2491-0.4913 0.2-0.7627l-1.3439-7.423c1.4332-1.0532 2.2821-2.7284 2.2864-4.5121zm-3.7636 3.2581c-0.3441 0.1948-0.5275 0.5872-0.4569 0.9775l1.2548 6.9352h-5.1899l1.2567-6.9361c0.0706-0.3904-0.1128-0.7827-0.4569-0.9775-1.4781-0.8228-2.2151-2.5456-1.7921-4.189 0.4231-1.6434 1.8992-2.7914 3.5891-2.7914s3.166 1.148 3.5891 2.7914c0.423 1.6434-0.314 3.3662-1.7921 4.189l-0.0018 9e-4z" fill="#fff"/>
<defs>
<linearGradient id="a" x1="2.2819" x2="104.08" y1="10.082" y2="11.95" gradientUnits="userSpaceOnUse">
<stop stop-color="#255D8B" offset="0"/>
<stop stop-color="#3A80BA" offset="1"/>
</linearGradient>
</defs>
</svg>
